HIERARCHY
ROOT boneTorso
{
	OFFSET 0.000000 -0.000000 0.825061
	CHANNELS 6 Xposition Yposition Zposition Xrotation Yrotation Zrotation
	JOINT boneHead
	{
		OFFSET 0.000000 0.000000 0.675000
		CHANNELS 3 Xrotation Yrotation Zrotation
		End Site
		{
			OFFSET 0.000000 -0.000000 0.500000
		}
	}
	JOINT boneLegRU
	{
		OFFSET 0.000000 0.125000 0.000000
		CHANNELS 6 Xposition Yposition Zposition Xrotation Yrotation Zrotation
		JOINT boneLegRD
		{
			OFFSET 0.000000 0.000000 -0.375000
			CHANNELS 3 Xrotation Yrotation Zrotation
			JOINT boneFootR
			{
				OFFSET 0.000000 0.000000 -0.375000
				CHANNELS 3 Xrotation Yrotation Zrotation
				End Site
				{
					OFFSET 0.000000 0.000000 -0.075000
				}
			}
		}
	}
	JOINT boneLegLU
	{
		OFFSET 0.000000 -0.125000 0.000000
		CHANNELS 6 Xposition Yposition Zposition Xrotation Yrotation Zrotation
		JOINT boneLegLD
		{
			OFFSET 0.000000 0.000000 -0.375000
			CHANNELS 3 Xrotation Yrotation Zrotation
			JOINT boneFootL
			{
				OFFSET 0.000000 0.000000 -0.375000
				CHANNELS 3 Xrotation Yrotation Zrotation
				End Site
				{
					OFFSET 0.000000 0.000000 -0.075000
				}
			}
		}
	}
	JOINT boneArmRU
	{
		OFFSET 0.000000 0.350000 0.675000
		CHANNELS 6 Xposition Yposition Zposition Xrotation Yrotation Zrotation
		JOINT boneArmRD
		{
			OFFSET 0.000000 0.000000 -0.375000
			CHANNELS 3 Xrotation Yrotation Zrotation
			End Site
			{
				OFFSET 0.000000 0.000000 -0.300000
			}
		}
	}
	JOINT boneArmLU
	{
		OFFSET 0.000000 -0.350000 0.675000
		CHANNELS 6 Xposition Yposition Zposition Xrotation Yrotation Zrotation
		JOINT boneArmLD
		{
			OFFSET 0.000000 0.000000 -0.375000
			CHANNELS 3 Xrotation Yrotation Zrotation
			End Site
			{
				OFFSET 0.000000 0.000000 -0.300000
			}
		}
		JOINT boneItemInHand
		{
			OFFSET 0.000000 0.000000 -0.673061
			CHANNELS 6 Xposition Yposition Zposition Xrotation Yrotation Zrotation
			End Site
			{
				OFFSET 0.000000 0.000000 -0.140000
			}
		}
	}
}
MOTION
Frames: 8
Frame Time: 0.066733
-0.249106 -0.000000 0.746356 -0.000005 59.854594 0.000008 0.000002 -39.612556 -0.000004 0.000000 0.125000 0.000000 -44.359900 -107.765154 -34.531613 -18.624317 26.890065 7.215064 -3.574477 0.635420 -3.428267 -0.000000 -0.125000 -0.000000 -32.719663 -65.621930 -39.395541 13.323828 63.588385 -8.279441 4.779717 -4.547830 4.600897 -0.000000 0.350000 0.675000 0.000002 -36.470249 -0.000006 0.000003 -34.540554 0.000001 0.000000 -0.350000 0.675000 0.000002 -36.470249 -0.000006 0.000003 -34.540554 0.000001 0.000000 -0.000000 -0.673061 0.000001 -23.384348 0.000004 
-0.249106 -0.000000 0.712330 -0.000005 59.854594 0.000008 0.000002 -39.612556 -0.000004 0.000000 0.125000 -0.000000 -81.922327 -102.442736 -73.300463 -2.614073 41.535296 2.717081 -3.574477 0.635419 -3.428266 0.000000 -0.125000 -0.000000 -36.994521 -68.236902 -44.040411 -18.609021 80.140863 25.415334 4.779716 -4.547831 4.600896 0.000000 0.350000 0.675000 0.000002 -36.470249 -0.000006 0.000003 -34.540554 0.000001 0.000000 -0.350000 0.675000 0.000002 -36.470249 -0.000006 0.000003 -34.540554 0.000001 0.000000 -0.000000 -0.673061 0.000001 -23.384348 0.000004 
-0.249106 -0.000000 0.730553 -0.000005 59.854594 0.000008 0.000002 -39.612556 -0.000004 -0.000000 0.125000 0.000000 -126.617555 -105.294825 -129.416922 -12.978241 33.755341 5.283945 -3.574477 0.635419 -3.428266 -0.000000 -0.125000 -0.000000 16.850324 -111.620980 21.441494 31.537630 83.318821 -31.244663 4.779716 -4.547830 4.600897 0.000000 0.350000 0.675000 0.000002 -36.470249 -0.000006 0.000003 -34.540554 0.000001 -0.000000 -0.350000 0.675000 0.000002 -36.470249 -0.000006 0.000003 -34.540554 0.000001 0.000000 -0.000000 -0.673061 0.000001 -23.384348 0.000004 
-0.249106 -0.000000 0.739059 -0.000005 59.854594 0.000008 0.000002 -39.612556 -0.000004 0.000000 0.125000 -0.000000 -158.974743 -126.165711 -164.565745 -12.732060 27.149650 5.200285 -3.574477 0.635420 -3.428266 -0.000000 -0.125000 -0.000000 12.805131 -118.810034 16.979442 14.798349 72.244127 -15.367502 4.779716 -4.547832 4.600896 0.000000 0.350000 0.675000 0.000002 -36.470249 -0.000006 0.000003 -34.540554 0.000001 -0.000000 -0.350000 0.675000 0.000002 -36.470249 -0.000006 0.000003 -34.540554 0.000001 0.000000 -0.000000 -0.673061 0.000001 -23.384348 0.000004 
-0.249106 -0.000000 0.746356 -0.000005 59.854594 0.000008 0.000002 -39.612556 -0.000004 0.000000 0.125000 -0.000000 -148.235090 -113.905391 -142.057184 -16.548087 64.273576 11.930850 -3.574477 0.635419 -3.428266 -0.000000 -0.125000 -0.000000 46.760776 -107.833667 36.291442 17.714620 26.028509 -6.036404 4.779716 -4.547831 4.600897 -0.000000 0.350000 0.675000 0.000002 -36.470249 -0.000006 0.000003 -34.540554 0.000001 0.000000 -0.350000 0.675000 0.000002 -36.470249 -0.000006 0.000003 -34.540554 0.000001 0.000000 -0.000000 -0.673061 0.000001 -23.384348 0.000004 
-0.249106 -0.000000 0.712331 -0.000005 59.854594 0.000008 0.000002 -39.612556 -0.000004 0.000000 0.125000 -0.000000 -105.570710 -102.794408 -97.517008 -1.813557 95.389397 2.018519 -3.574477 0.635420 -3.428266 0.000000 -0.125000 -0.000000 56.554513 -105.508555 46.510566 14.652530 53.289730 -7.957273 4.779716 -4.547832 4.600897 0.000000 0.350000 0.675000 0.000002 -36.470249 -0.000006 0.000003 -34.540554 0.000001 0.000000 -0.350000 0.675000 0.000002 -36.470249 -0.000006 0.000003 -34.540554 0.000001 -0.000000 -0.000000 -0.673061 0.000001 -23.384348 0.000004 
-0.249106 -0.000000 0.730553 -0.000005 59.854594 0.000008 0.000002 -39.612556 -0.000004 -0.000000 0.125000 -0.000000 -31.470957 -113.925561 -31.032579 -4.784613 75.611096 -2.043641 -3.574477 0.635418 -3.428266 -0.000000 -0.125000 -0.000000 -34.224695 -79.052999 -28.020998 6.734919 35.062725 -10.405821 4.779717 -4.547832 4.600896 -0.000000 0.350000 0.675000 0.000002 -36.470246 -0.000006 0.000003 -34.540554 0.000001 -0.000000 -0.350000 0.675000 0.000002 -36.470246 -0.000006 0.000003 -34.540554 0.000001 -0.000000 -0.000000 -0.673061 0.000001 -23.384351 0.000004 
-0.249106 -0.000000 0.744502 -0.000005 59.854594 0.000008 0.000002 -39.612556 -0.000004 -0.000000 0.125000 0.000000 -19.135571 -130.599801 -6.328987 -16.673627 69.338496 12.866589 -3.574477 0.635419 -3.428267 0.000000 -0.125000 -0.000000 -25.598448 -58.910470 -31.366660 18.151052 22.317025 -5.688844 4.779717 -4.547832 4.600897 0.000000 0.350000 0.675000 0.000002 -36.470246 -0.000006 0.000003 -34.540554 0.000001 -0.000000 -0.350000 0.675000 0.000002 -36.470246 -0.000006 0.000003 -34.540554 0.000001 -0.000000 -0.000000 -0.673061 0.000001 -23.384351 0.000004 
